<?xml version="1.0" standalone="no"?>
<!DOCTYPE svg PUBLIC "-//W3C//DTD SVG 20010904//EN"
 "http://www.w3.org/TR/2001/REC-SVG-20010904/DTD/svg10.dtd">
<svg version="1.0" xmlns="http://www.w3.org/2000/svg"
 width="260.000000pt" height="260.000000pt" viewBox="0 0 260.000000 260.000000"
 preserveAspectRatio="xMidYMid meet">
<metadata>
Created by potrace 1.14, written by Peter Selinger 2001-2017
</metadata>
<g transform="translate(0.000000,260.000000) scale(0.100000,-0.100000)"
fill="#000000" stroke="none">
<path d="M593 2424 c-183 -40 -358 -156 -460 -305 -37 -54 -87 -153 -98 -194
-5 -16 -9 -34 -11 -40 -25 -91 -27 -280 -4 -360 34 -122 103 -255 167 -323 7
-7 19 -23 28 -34 18 -26 22 -23 28 22 2 20 12 50 21 68 9 18 146 162 304 320
158 158 293 296 301 305 13 17 6 26 -73 106 -87 88 -88 89 -70 110 10 11 22
21 26 21 4 0 130 -122 279 -271 158 -158 286 -277 305 -285 79 -33 190 -4 242
65 40 52 54 84 56 128 5 89 -4 102 -220 319 -229 229 -293 277 -436 325 -80
27 -110 32 -208 34 -70 2 -139 -2 -177 -11z"/>
<path d="M1724 2429 c-106 -17 -263 -90 -344 -158 l-35 -30 162 -163 c89 -90
167 -176 173 -193 23 -58 28 -126 14 -177 -52 -201 -284 -291 -440 -172 l-44
34 -304 -304 c-316 -316 -323 -326 -318 -401 7 -103 121 -169 215 -126 29 13
138 115 352 330 l309 311 33 -32 33 -32 -324 -326 c-285 -286 -325 -330 -332
-363 -21 -119 98 -224 206 -180 23 9 147 126 352 331 l317 316 30 -28 29 -28
-315 -315 c-310 -310 -343 -349 -343 -410 0 -46 37 -107 79 -131 43 -25 113
-29 148 -9 35 19 1021 1005 1062 1062 60 81 89 138 122 237 41 121 48 279 18
398 -72 280 -285 488 -567 553 -67 15 -211 18 -288 6z"/>
<path d="M633 1548 c-165 -167 -306 -312 -312 -324 -30 -61 -5 -152 54 -193
41 -28 114 -35 153 -15 15 7 162 148 327 314 l300 300 -110 110 -110 110 -302
-302z"/>
</g>
</svg>
